<?xml version="1.0" encoding="UTF-8" standalone="no"?>
<!-- Created with Inkscape (http://www.inkscape.org/) -->

<svg
   xmlns:dc="http://purl.org/dc/elements/1.1/"
   xmlns:cc="http://creativecommons.org/ns#"
   xmlns:rdf="http://www.w3.org/1999/02/22-rdf-syntax-ns#"
   xmlns:svg="http://www.w3.org/2000/svg"
   xmlns="http://www.w3.org/2000/svg"
   version="1.1"
   width="200"
   height="36.431271"
   id="svg2"
   xml:space="preserve"><metadata
     id="metadata8"><rdf:RDF><cc:Work
         rdf:about=""><dc:format>image/svg+xml</dc:format><dc:type
           rdf:resource="http://purl.org/dc/dcmitype/StillImage" /><dc:title></dc:title></cc:Work></rdf:RDF></metadata><defs
     id="defs6"><clipPath
       id="clipPath16"><path
         d="M 0,768 1024,768 1024,0 0,0 0,768 z"
         id="path18" /></clipPath><clipPath
       id="clipPath36"><path
         d="m 351.691,399.99 10.672,0 0,-11.767 -10.672,0 0,11.767 z"
         id="path38" /></clipPath><clipPath
       id="clipPath52"><path
         d="m 358.953,409.636 13.221,0 0,-15.732 -13.221,0 0,15.732 z"
         id="path54" /></clipPath></defs><g
     transform="matrix(1.25,0,0,-1.25,-425.03562,521.71002)"
     id="g10"><g
       transform="matrix(1.0000031,0,0,1,-0.00105747,0)"
       id="g12"><g
         clip-path="url(#clipPath16)"
         id="g14"><g
           transform="translate(365.3066,415.5176)"
           id="g20"><path
             d="m 0,0 c -0.002,-0.001 -0.007,-0.003 -0.012,-0.006 -0.005,-0.001 -0.009,-0.003 -0.014,-0.006 -0.005,0 -0.008,-0.004 -0.012,-0.007 -0.005,-0.002 -0.009,-0.004 -0.014,-0.005 l -2.564,-1.427 c -0.072,-0.038 -0.129,-0.093 -0.174,-0.16 -0.044,-0.068 -0.073,-0.146 -0.089,-0.231 -0.016,-0.088 -0.015,-0.179 0,-0.273 0.018,-0.092 0.049,-0.186 0.097,-0.275 l 1.547,-2.887 c 0.044,-0.083 0.098,-0.154 0.158,-0.212 0.061,-0.058 0.127,-0.101 0.198,-0.133 0.068,-0.03 0.139,-0.047 0.21,-0.048 0.071,0 0.14,0.012 0.206,0.044 0.003,0.001 0.009,0.003 0.013,0.005 0.004,0.003 0.009,0.004 0.012,0.007 0.004,0.003 0.011,0.006 0.016,0.008 0.004,0.002 0.007,0.006 0.012,0.007 l 2.423,1.574 c 0.061,0.039 0.111,0.093 0.149,0.159 0.035,0.064 0.061,0.138 0.072,0.219 0.011,0.078 0.009,0.165 -0.004,0.251 -0.015,0.086 -0.043,0.174 -0.085,0.258 L 0.734,-0.391 C 0.692,-0.311 0.643,-0.239 0.585,-0.181 0.528,-0.122 0.466,-0.074 0.4,-0.04 0.336,-0.005 0.268,0.017 0.198,0.023 0.132,0.032 0.063,0.023 0,0"
             id="path22"
             style="fill:#cc9e14;fill-opacity:1;fill-rule:nonzero;stroke:none" /></g><g
           transform="translate(362.2422,417.3555)"
           id="g24"><path
             d="m 0,0 c -0.002,-0.001 -0.004,-0.001 -0.008,-0.003 0,0 -0.003,-0.001 -0.005,-0.002 -0.002,-0.001 -0.005,-0.002 -0.005,-0.002 -0.002,-0.001 -0.005,-0.003 -0.006,-0.004 l -1.208,-0.672 c -0.033,-0.016 -0.06,-0.044 -0.082,-0.075 -0.019,-0.031 -0.034,-0.069 -0.04,-0.109 -0.009,-0.04 -0.009,-0.083 -10e-4,-0.127 0.006,-0.044 0.022,-0.089 0.045,-0.131 l 0.728,-1.358 c 0.02,-0.039 0.047,-0.071 0.075,-0.1 0.028,-0.027 0.06,-0.048 0.093,-0.062 0.032,-0.016 0.065,-0.022 0.098,-0.023 0.035,-10e-4 0.068,0.006 0.097,0.02 0.002,0.001 0.005,0.002 0.007,0.004 0,0 0.005,0.002 0.005,0.002 l 0.009,0.005 c 0.001,0 0.002,10e-4 0.005,0.003 l 1.14,0.74 c 0.03,0.019 0.053,0.044 0.07,0.075 0.017,0.031 0.028,0.065 0.035,0.103 0.005,0.037 0.005,0.077 -0.003,0.119 -0.006,0.04 -0.02,0.081 -0.04,0.121 L 0.344,-0.185 C 0.326,-0.146 0.301,-0.112 0.275,-0.084 0.248,-0.058 0.218,-0.034 0.188,-0.018 0.158,-0.001 0.126,0.009 0.092,0.011 0.062,0.015 0.031,0.011 0,0"
             id="path26"
             style="fill:#99823d;fill-opacity:1;fill-rule:nonzero;stroke:none" /></g><g
           transform="translate(366.1533,402.6831)"
           id="g28"><path
             d="m 0,0 c -0.032,0.316 -0.114,0.631 -0.245,0.932 -0.009,0.019 -0.02,0.039 -0.029,0.06 -0.008,0.019 -0.018,0.039 -0.027,0.059 -0.009,0.021 -0.02,0.038 -0.031,0.058 -0.009,0.02 -0.02,0.041 -0.031,0.059 l -1.939,3.559 -3.853,7.072 c -0.176,0.324 -0.394,0.607 -0.643,0.847 -0.247,0.241 -0.526,0.435 -0.819,0.58 -0.296,0.145 -0.607,0.235 -0.918,0.269 -0.315,0.032 -0.63,0.004 -0.927,-0.091 C -9.485,13.397 -9.507,13.39 -9.53,13.381 -9.551,13.374 -9.574,13.366 -9.595,13.357 -9.618,13.348 -9.639,13.34 -9.661,13.33 -9.682,13.321 -9.703,13.31 -9.725,13.3 L -24.177,6.455 c -0.467,-0.221 -0.858,-0.521 -1.165,-0.876 -0.31,-0.358 -0.532,-0.771 -0.66,-1.211 -0.128,-0.444 -0.157,-0.911 -0.082,-1.378 0.074,-0.466 0.253,-0.929 0.545,-1.359 l 8.783,-13.001 c 0.235,-0.347 0.528,-0.623 0.859,-0.826 0.328,-0.2 0.692,-0.328 1.072,-0.383 0.376,-0.056 0.766,-0.038 1.153,0.054 0.381,0.089 0.756,0.251 1.108,0.483 0.023,0.016 0.045,0.031 0.067,0.047 0.022,0.015 0.044,0.031 0.065,0.047 0.023,0.014 0.044,0.031 0.066,0.048 0.022,0.016 0.044,0.033 0.066,0.05 l 0.038,0.031 7.229,5.938 0.82,0.674 3.309,2.715 c 0.232,0.191 0.422,0.428 0.568,0.692 0.146,0.263 0.248,0.556 0.304,0.86 C 0.026,-0.634 0.038,-0.316 0,0"
             id="path30"
             style="fill:#14cc9e;fill-opacity:1;fill-rule:nonzero;stroke:none" /></g><g
           id="g32"><g
             id="g34" /><g
             id="g40"><g
               clip-path="url(#clipPath36)"
               id="g42"><g
                 transform="translate(362.3442,394.3887)"
                 id="g44"><path
                   d="m 0,0 c -0.027,0.158 -0.08,0.31 -0.161,0.449 l -1.21,2.044 -1.505,2.545 c -0.002,0.003 -0.005,0.007 -0.006,0.012 -0.003,0.004 -0.007,0.009 -0.01,0.012 -0.002,0.005 -0.005,0.009 -0.006,0.013 -0.003,0.004 -0.006,0.01 -0.009,0.012 -0.052,0.08 -0.113,0.153 -0.177,0.216 -0.068,0.062 -0.138,0.114 -0.214,0.159 -0.076,0.043 -0.156,0.076 -0.237,0.1 -0.082,0.023 -0.168,0.036 -0.252,0.04 -0.048,10e-4 -0.094,0 -0.141,-0.007 C -3.976,5.591 -4.023,5.583 -4.071,5.571 -4.118,5.558 -4.164,5.544 -4.21,5.524 -4.256,5.507 -4.302,5.484 -4.347,5.459 -4.349,5.458 -4.351,5.455 -4.354,5.455 -4.357,5.453 -4.359,5.451 -4.361,5.45 -4.363,5.45 -4.367,5.448 -4.369,5.446 -4.372,5.445 -4.374,5.443 -4.376,5.443 -4.378,5.439 -4.381,5.439 -4.383,5.437 -4.386,5.436 -4.388,5.434 -4.39,5.432 -4.393,5.432 -4.394,5.429 -4.397,5.429 -4.4,5.426 -4.402,5.425 -4.404,5.423 -4.409,5.42 -4.414,5.417 -4.418,5.415 -4.424,5.411 -4.427,5.407 -4.433,5.405 -4.438,5.4 -4.441,5.398 -4.447,5.395 -4.452,5.391 -4.457,5.389 -4.46,5.384 l -5.555,-4.097 c -0.149,-0.108 -0.274,-0.243 -0.373,-0.391 -0.099,-0.148 -0.171,-0.311 -0.215,-0.48 -0.044,-0.17 -0.06,-0.347 -0.043,-0.518 0.015,-0.171 0.061,-0.34 0.14,-0.494 0.005,-0.011 0.011,-0.021 0.016,-0.031 0.006,-0.01 0.011,-0.021 0.017,-0.03 0.007,-0.011 0.012,-0.021 0.019,-0.031 0.006,-0.01 0.012,-0.019 0.019,-0.03 l 1.796,-2.759 1.44,-2.207 c 0.091,-0.137 0.203,-0.248 0.329,-0.326 0.127,-0.079 0.268,-0.129 0.414,-0.147 0.146,-0.019 0.298,-0.008 0.449,0.032 0.148,0.042 0.297,0.112 0.436,0.215 0.01,0.007 0.02,0.014 0.03,0.022 0.01,0.008 0.021,0.016 0.031,0.025 0.01,0.007 0.021,0.016 0.03,0.025 0.009,0.008 0.02,0.017 0.029,0.026 l 5.005,4.489 c 0.122,0.109 0.221,0.239 0.297,0.382 0.073,0.144 0.123,0.3 0.149,0.46 0.026,0.16 0.026,0.322 0,0.481"
                   id="path46"
                   style="fill:#007eb2;fill-opacity:1;fill-rule:nonzero;stroke:none" /></g></g></g></g><g
           id="g48"><g
             id="g50" /><g
             id="g56"><g
               clip-path="url(#clipPath52)"
               id="g58"><g
                 transform="translate(372.1401,401.542)"
                 id="g60"><path
                   d="M 0,0 C -0.036,0.213 -0.105,0.422 -0.205,0.617 L -3.587,7.162 C -3.689,7.357 -3.812,7.523 -3.949,7.66 -4.086,7.799 -4.239,7.906 -4.399,7.978 -4.559,8.053 -4.727,8.093 -4.893,8.094 -5.062,8.098 -5.226,8.063 -5.383,7.987 -5.394,7.98 -5.405,7.976 -5.416,7.969 -5.428,7.963 -5.439,7.957 -5.451,7.949 -5.463,7.944 -5.473,7.937 -5.485,7.93 -5.496,7.921 -5.508,7.916 -5.518,7.907 L -8.369,5.972 -12.388,3.244 c -0.191,-0.132 -0.349,-0.298 -0.475,-0.491 -0.125,-0.193 -0.216,-0.412 -0.269,-0.643 -0.054,-0.231 -0.069,-0.475 -0.044,-0.72 0.024,-0.243 0.09,-0.487 0.196,-0.717 0.008,-0.015 0.013,-0.03 0.022,-0.047 0.007,-0.014 0.015,-0.03 0.023,-0.044 0.008,-0.016 0.016,-0.031 0.024,-0.045 0.008,-0.015 0.016,-0.03 0.026,-0.044 l 2.605,-4.454 1.7,-2.908 c 0.119,-0.204 0.264,-0.367 0.426,-0.491 0.162,-0.125 0.341,-0.206 0.527,-0.248 0.184,-0.04 0.375,-0.041 0.56,10e-4 0.188,0.044 0.37,0.126 0.539,0.253 0.012,0.008 0.027,0.017 0.038,0.027 0.014,0.011 0.024,0.02 0.037,0.03 0.013,0.011 0.024,0.021 0.036,0.031 0.013,0.013 0.024,0.023 0.037,0.034 l 5.911,5.524 c 0.138,0.129 0.249,0.292 0.332,0.474 0.08,0.182 0.134,0.383 0.158,0.593 C 0.044,-0.431 0.036,-0.215 0,0"
                   id="path62"
                   style="fill:#ff8800;fill-opacity:1;fill-rule:nonzero;stroke:none" /></g></g></g></g><g
           transform="translate(379.8555,404.4458)"
           id="g64"><path
             d="m 0,0 c 0,-3.29 1.534,-5.591 4.057,-5.591 2.548,0 4.009,2.424 4.009,5.665 0,3.019 -1.411,5.593 -4.009,5.593 C 1.484,5.667 0,3.242 0,0 m 12.049,0.199 c 0,-5.493 -3.291,-8.784 -8.19,-8.784 -4.923,0 -7.842,3.736 -7.842,8.511 0,4.998 3.216,8.734 8.115,8.734 5.121,0 7.917,-3.835 7.917,-8.461"
             id="path66"
             style="fill:#222222;fill-opacity:1;fill-rule:nonzero;stroke:none" /></g><g
           transform="translate(396.9751,401.3291)"
           id="g68"><path
             d="m 0,0 c 0,-0.297 0.024,-0.544 0.075,-0.792 0.247,-1.014 1.113,-1.781 2.202,-1.781 1.632,0 2.597,1.361 2.597,3.414 0,1.93 -0.866,3.389 -2.548,3.389 C 1.261,4.23 0.322,3.439 0.075,2.325 0.024,2.127 0,1.88 0,1.658 L 0,0 z m -3.762,2.846 c 0,1.583 -0.048,2.919 -0.098,4.057 l 3.266,0 0.173,-1.682 0.05,0 c 0.89,1.261 2.276,1.954 4.033,1.954 2.647,0 5.022,-2.301 5.022,-6.16 0,-4.404 -2.795,-6.483 -5.493,-6.483 -1.46,0 -2.598,0.594 -3.141,1.385 l -0.05,0 0,-6.012 -3.762,0 0,12.941 z"
             id="path70"
             style="fill:#222222;fill-opacity:1;fill-rule:nonzero;stroke:none" /></g><g
           transform="translate(414.2686,403.5557)"
           id="g72"><path
             d="M 0,0 C 0,0.916 -0.396,2.449 -2.128,2.449 -3.712,2.449 -4.355,0.99 -4.454,0 L 0,0 z m -4.429,-2.572 c 0.099,-1.559 1.658,-2.303 3.414,-2.303 1.286,0 2.326,0.174 3.34,0.521 L 2.821,-6.903 C 1.583,-7.422 0.074,-7.67 -1.56,-7.67 c -4.106,0 -6.457,2.377 -6.457,6.161 0,3.068 1.905,6.458 6.111,6.458 3.909,0 5.394,-3.044 5.394,-6.037 0,-0.645 -0.073,-1.213 -0.124,-1.484 l -7.793,0 z"
             id="path74"
             style="fill:#222222;fill-opacity:1;fill-rule:nonzero;stroke:none" /></g><g
           transform="translate(418.8691,404.3721)"
           id="g76"><path
             d="m 0,0 c 0,1.509 -0.049,2.771 -0.099,3.86 l 3.266,0 0.174,-1.682 0.074,0 c 0.495,0.791 1.707,1.954 3.735,1.954 2.475,0 4.33,-1.657 4.33,-5.221 l 0,-7.149 -3.76,0 0,6.704 C 7.72,0.025 7.175,1.089 5.814,1.089 4.776,1.089 4.157,0.371 3.885,-0.321 3.787,-0.569 3.761,-0.916 3.761,-1.262 l 0,-6.976 L 0,-8.238 0,0 z"
             id="path78"
             style="fill:#222222;fill-opacity:1;fill-rule:nonzero;stroke:none" /></g><g
           transform="translate(433.0313,412.8096)"
           id="g80"><path
             d="m 0,0 8.981,0 0,-1.807 -6.804,0 0,-5.542 6.284,0 0,-1.781 -6.284,0 0,-7.546 -2.177,0 L 0,0 z"
             id="path82"
             style="fill:#333333;fill-opacity:1;fill-rule:nonzero;stroke:none" /></g><g
           transform="translate(453.0469,399.4243)"
           id="g84"><path
             d="m 0,0 c 0,-1.262 0.025,-2.352 0.1,-3.291 l -1.931,0 -0.123,1.955 -0.05,0 c -0.544,-0.966 -1.831,-2.227 -3.959,-2.227 -1.879,0 -4.131,1.065 -4.131,5.245 l 0,7.002 2.177,0 0,-6.606 c 0,-2.277 0.717,-3.836 2.672,-3.836 1.46,0 2.474,1.015 2.87,2.005 0.124,0.296 0.198,0.692 0.198,1.114 l 0,7.323 L 0,8.684 0,0 z"
             id="path86"
             style="fill:#333333;fill-opacity:1;fill-rule:nonzero;stroke:none" /></g><g
           transform="translate(458.1431,410.9785)"
           id="g88"><path
             d="m 0,0 0,-2.871 3.117,0 0,-1.657 -3.117,0 0,-6.457 c 0,-1.485 0.42,-2.327 1.633,-2.327 0.594,0 0.94,0.05 1.262,0.149 l 0.098,-1.657 c -0.42,-0.149 -1.088,-0.298 -1.93,-0.298 -1.015,0 -1.83,0.347 -2.35,0.915 -0.593,0.669 -0.84,1.733 -0.84,3.143 l 0,6.532 -1.857,0 0,1.657 1.857,0 0,2.227 L 0,0 z"
             id="path90"
             style="fill:#333333;fill-opacity:1;fill-rule:nonzero;stroke:none" /></g><g
           transform="translate(472.5908,399.4243)"
           id="g92"><path
             d="m 0,0 c 0,-1.262 0.025,-2.352 0.1,-3.291 l -1.931,0 -0.123,1.955 -0.049,0 c -0.545,-0.966 -1.832,-2.227 -3.959,-2.227 -1.881,0 -4.131,1.065 -4.131,5.245 l 0,7.002 2.176,0 0,-6.606 c 0,-2.277 0.717,-3.836 2.671,-3.836 1.461,0 2.476,1.015 2.872,2.005 0.122,0.296 0.198,0.692 0.198,1.114 l 0,7.323 L 0,8.684 0,0 z"
             id="path94"
             style="fill:#333333;fill-opacity:1;fill-rule:nonzero;stroke:none" /></g><g
           transform="translate(475.0654,404.3721)"
           id="g96"><path
             d="m 0,0 c 0,1.411 -0.025,2.622 -0.1,3.736 l 1.905,0 0.1,-2.376 0.074,0 c 0.543,1.609 1.88,2.623 3.339,2.623 0.224,0 0.396,-0.025 0.595,-0.049 l 0,-2.053 C 5.69,1.931 5.468,1.931 5.17,1.931 3.636,1.931 2.548,0.791 2.251,-0.841 2.202,-1.139 2.176,-1.508 2.176,-1.855 l 0,-6.383 L 0,-8.238 0,0 z"
             id="path98"
             style="fill:#333333;fill-opacity:1;fill-rule:nonzero;stroke:none" /></g><g
           transform="translate(489.3643,403.2832)"
           id="g100"><path
             d="M 0,0 C 0.025,1.361 -0.568,3.514 -3.018,3.514 -5.245,3.514 -6.185,1.509 -6.359,0 L 0,0 z m -6.383,-1.558 c 0.05,-2.944 1.904,-4.158 4.108,-4.158 1.558,0 2.523,0.272 3.316,0.619 l 0.395,-1.558 c -0.768,-0.347 -2.103,-0.767 -4.009,-0.767 -3.686,0 -5.888,2.45 -5.888,6.062 0,3.611 2.128,6.432 5.616,6.432 3.934,0 4.949,-3.413 4.949,-5.616 0,-0.446 -0.025,-0.767 -0.074,-1.014 l -8.413,0 z"
             id="path102"
             style="fill:#333333;fill-opacity:1;fill-rule:nonzero;stroke:none" /></g><g
           transform="translate(492.728,398.335)"
           id="g104"><path
             d="m 0,0 c 0.669,-0.395 1.807,-0.841 2.896,-0.841 1.558,0 2.301,0.768 2.301,1.781 0,1.04 -0.619,1.585 -2.202,2.177 -2.177,0.793 -3.191,1.955 -3.191,3.39 0,1.931 1.583,3.514 4.131,3.514 1.212,0 2.276,-0.322 2.919,-0.743 L 6.335,7.695 C 5.866,7.992 5,8.412 3.887,8.412 2.599,8.412 1.906,7.67 1.906,6.779 1.906,5.789 2.599,5.344 4.157,4.726 6.211,3.958 7.3,2.919 7.3,1.139 c 0,-2.128 -1.657,-3.613 -4.454,-3.613 -1.311,0 -2.524,0.347 -3.365,0.841 L 0,0 z"
             id="path106"
             style="fill:#333333;fill-opacity:1;fill-rule:nonzero;stroke:none" /></g></g></g></g></svg>